<?xml version="1.0" encoding="UTF-8" standalone="no"?>
<!DOCTYPE svg PUBLIC "-//W3C//DTD SVG 1.1//EN"
 "http://www.w3.org/Graphics/SVG/1.1/DTD/svg11.dtd">
<!-- Generated by graphviz version 2.43.0 (0)
 -->
<!-- Title: %3 Pages: 1 -->
<svg width="658pt" height="442pt"
 viewBox="0.00 0.00 658.28 441.91" xmlns="http://www.w3.org/2000/svg" xmlns:xlink="http://www.w3.org/1999/xlink">
<g id="graph0" class="graph" transform="scale(1 1) rotate(0) translate(4 437.91)">
<title>%3</title>
<polygon fill="white" stroke="transparent" points="-4,4 -4,-437.91 654.28,-437.91 654.28,4 -4,4"/>
<!-- I1 -->
<g id="node1" class="node">
<title>I1</title>
<polygon fill="lightgray" stroke="black" points="126.28,-413.92 100.28,-413.92 100.28,-395.92 126.28,-395.92 126.28,-413.92"/>
<text text-anchor="middle" x="113.28" y="-402.72" font-family="Times,serif" font-size="9.00">I1</text>
</g>
<!-- right -->
<g id="node10" class="node">
<title>right</title>
<ellipse fill="lightblue" stroke="black" cx="28.28" cy="-216.96" rx="28.07" ry="28.07"/>
<text text-anchor="middle" x="28.28" y="-214.76" font-family="Times,serif" font-size="9.00">right</text>
</g>
<!-- I1&#45;&gt;right -->
<g id="edge1" class="edge">
<title>I1&#45;&gt;right</title>
<path fill="none" stroke="green" stroke-width="2.35" d="M104.79,-395.6C93.5,-384.09 73.66,-362.2 62.28,-339.93 48.63,-313.21 39.87,-280.31 34.67,-255.41"/>
<polygon fill="green" stroke="green" stroke-width="2.35" points="38.04,-254.4 32.65,-245.27 31.17,-255.76 38.04,-254.4"/>
</g>
<!-- 3117 -->
<g id="node18" class="node">
<title>3117</title>
<ellipse fill="white" stroke="black" cx="162.28" cy="-310.94" rx="28.98" ry="28.98"/>
<text text-anchor="middle" x="162.28" y="-308.74" font-family="Times,serif" font-size="9.00">3117</text>
</g>
<!-- I1&#45;&gt;3117 -->
<g id="edge27" class="edge">
<title>I1&#45;&gt;3117</title>
<path fill="none" stroke="green" stroke-width="0.24" d="M117.63,-395.76C123.58,-384.6 134.6,-363.91 144.2,-345.88"/>
<polygon fill="green" stroke="green" stroke-width="0.24" points="147.45,-347.23 149.06,-336.76 141.27,-343.94 147.45,-347.23"/>
</g>
<!-- I2 -->
<g id="node2" class="node">
<title>I2</title>
<polygon fill="lightgray" stroke="black" points="97.28,-319.94 71.28,-319.94 71.28,-301.94 97.28,-301.94 97.28,-319.94"/>
<text text-anchor="middle" x="84.28" y="-308.74" font-family="Times,serif" font-size="9.00">I2</text>
</g>
<!-- I2&#45;&gt;right -->
<g id="edge3" class="edge">
<title>I2&#45;&gt;right</title>
<path fill="none" stroke="red" stroke-width="1.51" d="M79.31,-301.78C72.32,-290.29 59.18,-268.7 47.98,-250.31"/>
<polygon fill="red" stroke="red" stroke-width="1.51" points="50.87,-248.32 42.68,-241.6 44.89,-251.96 50.87,-248.32"/>
</g>
<!-- 2679 -->
<g id="node15" class="node">
<title>2679</title>
<ellipse fill="white" stroke="black" cx="217.28" cy="-28.99" rx="28.98" ry="28.98"/>
<text text-anchor="middle" x="217.28" y="-26.79" font-family="Times,serif" font-size="9.00">2679</text>
</g>
<!-- I2&#45;&gt;2679 -->
<g id="edge8" class="edge">
<title>I2&#45;&gt;2679</title>
<path fill="none" stroke="green" stroke-width="0.44" stroke-dasharray="1,5" d="M84.49,-301.68C85.23,-281.61 88.53,-228.89 103.28,-187.97 121.81,-136.56 162.36,-87.12 189.75,-57.64"/>
<polygon fill="green" stroke="green" stroke-width="0.44" points="192.43,-59.9 196.76,-50.22 187.35,-55.09 192.43,-59.9"/>
</g>
<!-- 3386 -->
<g id="node22" class="node">
<title>3386</title>
<ellipse fill="white" stroke="black" cx="141.28" cy="-216.96" rx="28.98" ry="28.98"/>
<text text-anchor="middle" x="141.28" y="-214.76" font-family="Times,serif" font-size="9.00">3386</text>
</g>
<!-- I2&#45;&gt;3386 -->
<g id="edge11" class="edge">
<title>I2&#45;&gt;3386</title>
<path fill="none" stroke="red" stroke-width="0.19" d="M89.34,-301.78C96.41,-290.37 109.66,-268.99 121.01,-250.68"/>
<polygon fill="red" stroke="red" stroke-width="0.19" points="124.1,-252.33 126.39,-241.99 118.15,-248.65 124.1,-252.33"/>
</g>
<!-- I3 -->
<g id="node3" class="node">
<title>I3</title>
<polygon fill="lightgray" stroke="black" points="410.28,-131.97 384.28,-131.97 384.28,-113.97 410.28,-113.97 410.28,-131.97"/>
<text text-anchor="middle" x="397.28" y="-120.77" font-family="Times,serif" font-size="9.00">I3</text>
</g>
<!-- left -->
<g id="node9" class="node">
<title>left</title>
<ellipse fill="lightblue" stroke="black" cx="397.28" cy="-28.99" rx="22.76" ry="22.76"/>
<text text-anchor="middle" x="397.28" y="-26.79" font-family="Times,serif" font-size="9.00">left</text>
</g>
<!-- I3&#45;&gt;left -->
<g id="edge4" class="edge">
<title>I3&#45;&gt;left</title>
<path fill="none" stroke="red" stroke-width="1.25" d="M397.28,-113.81C397.28,-102.22 397.28,-80.33 397.28,-61.83"/>
<polygon fill="red" stroke="red" stroke-width="1.25" points="400.78,-61.71 397.28,-51.71 393.78,-61.71 400.78,-61.71"/>
</g>
<!-- I4 -->
<g id="node4" class="node">
<title>I4</title>
<polygon fill="lightgray" stroke="black" points="498.28,-131.97 472.28,-131.97 472.28,-113.97 498.28,-113.97 498.28,-131.97"/>
<text text-anchor="middle" x="485.28" y="-120.77" font-family="Times,serif" font-size="9.00">I4</text>
</g>
<!-- 678 -->
<g id="node14" class="node">
<title>678</title>
<ellipse fill="white" stroke="black" cx="473.28" cy="-28.99" rx="25" ry="25"/>
<text text-anchor="middle" x="473.28" y="-26.79" font-family="Times,serif" font-size="9.00">678</text>
</g>
<!-- I4&#45;&gt;678 -->
<g id="edge23" class="edge">
<title>I4&#45;&gt;678</title>
<path fill="none" stroke="red" stroke-width="0.11" d="M484.22,-113.81C482.75,-102.59 480.03,-81.71 477.67,-63.61"/>
<polygon fill="red" stroke="red" stroke-width="0.11" points="481.13,-63.1 476.37,-53.63 474.19,-64 481.13,-63.1"/>
</g>
<!-- I5 -->
<g id="node5" class="node">
<title>I5</title>
<polygon fill="lightgray" stroke="black" points="366.28,-131.97 340.28,-131.97 340.28,-113.97 366.28,-113.97 366.28,-131.97"/>
<text text-anchor="middle" x="353.28" y="-120.77" font-family="Times,serif" font-size="9.00">I5</text>
</g>
<!-- I5&#45;&gt;left -->
<g id="edge2" class="edge">
<title>I5&#45;&gt;left</title>
<path fill="none" stroke="green" stroke-width="1.59" d="M357.19,-113.81C363.02,-101.62 374.29,-78.07 383.4,-59.02"/>
<polygon fill="green" stroke="green" stroke-width="1.59" points="386.63,-60.36 387.79,-49.83 380.32,-57.34 386.63,-60.36"/>
</g>
<!-- I5&#45;&gt;678 -->
<g id="edge10" class="edge">
<title>I5&#45;&gt;678</title>
<path fill="none" stroke="red" stroke-width="0.26" stroke-dasharray="1,5" d="M358.64,-113.79C362.75,-107.88 368.81,-99.91 375.28,-93.98 378.29,-91.23 416.1,-66.74 443.86,-48.87"/>
<polygon fill="red" stroke="red" stroke-width="0.26" points="445.95,-51.7 452.46,-43.34 442.16,-45.81 445.95,-51.7"/>
</g>
<!-- I5&#45;&gt;2679 -->
<g id="edge7" class="edge">
<title>I5&#45;&gt;2679</title>
<path fill="none" stroke="red" stroke-width="0.18" stroke-dasharray="1,5" d="M348.22,-113.91C344.16,-107.9 338.05,-99.77 331.28,-93.98 307.8,-73.87 277.02,-57.04 253.37,-45.7"/>
<polygon fill="red" stroke="red" stroke-width="0.18" points="254.58,-42.4 244.04,-41.33 251.61,-48.74 254.58,-42.4"/>
</g>
<!-- I6 -->
<g id="node6" class="node">
<title>I6</title>
<polygon fill="lightgray" stroke="black" points="423.28,-413.92 397.28,-413.92 397.28,-395.92 423.28,-395.92 423.28,-413.92"/>
<text text-anchor="middle" x="410.28" y="-402.72" font-family="Times,serif" font-size="9.00">I6</text>
</g>
<!-- I7 -->
<g id="node7" class="node">
<title>I7</title>
<polygon fill="lightgray" stroke="black" points="509.28,-319.94 483.28,-319.94 483.28,-301.94 509.28,-301.94 509.28,-319.94"/>
<text text-anchor="middle" x="496.28" y="-308.74" font-family="Times,serif" font-size="9.00">I7</text>
</g>
<!-- 1793 -->
<g id="node11" class="node">
<title>1793</title>
<ellipse fill="white" stroke="black" cx="545.28" cy="-122.97" rx="28.98" ry="28.98"/>
<text text-anchor="middle" x="545.28" y="-120.77" font-family="Times,serif" font-size="9.00">1793</text>
</g>
<!-- I7&#45;&gt;1793 -->
<g id="edge5" class="edge">
<title>I7&#45;&gt;1793</title>
<path fill="none" stroke="green" stroke-width="0.11" d="M498.52,-301.47C504.94,-277.08 523.77,-205.61 535.49,-161.15"/>
<polygon fill="green" stroke="green" stroke-width="0.11" points="538.92,-161.85 538.09,-151.29 532.15,-160.07 538.92,-161.85"/>
</g>
<!-- 3675 -->
<g id="node23" class="node">
<title>3675</title>
<ellipse fill="white" stroke="black" cx="469.28" cy="-216.96" rx="28.98" ry="28.98"/>
<text text-anchor="middle" x="469.28" y="-214.76" font-family="Times,serif" font-size="9.00">3675</text>
</g>
<!-- I7&#45;&gt;3675 -->
<g id="edge21" class="edge">
<title>I7&#45;&gt;3675</title>
<path fill="none" stroke="red" stroke-width="0.29" d="M493.89,-301.78C490.8,-291.26 485.23,-272.29 480.17,-255.06"/>
<polygon fill="red" stroke="red" stroke-width="0.29" points="483.45,-253.79 477.28,-245.18 476.73,-255.76 483.45,-253.79"/>
</g>
<!-- I8 -->
<g id="node8" class="node">
<title>I8</title>
<polygon fill="lightgray" stroke="black" points="454.28,-131.97 428.28,-131.97 428.28,-113.97 454.28,-113.97 454.28,-131.97"/>
<text text-anchor="middle" x="441.28" y="-120.77" font-family="Times,serif" font-size="9.00">I8</text>
</g>
<!-- I8&#45;&gt;left -->
<g id="edge16" class="edge">
<title>I8&#45;&gt;left</title>
<path fill="none" stroke="red" stroke-width="0.3" d="M437.38,-113.81C431.55,-101.62 420.28,-78.07 411.17,-59.02"/>
<polygon fill="red" stroke="red" stroke-width="0.3" points="414.25,-57.34 406.78,-49.83 407.93,-60.36 414.25,-57.34"/>
</g>
<!-- 3575 -->
<g id="node12" class="node">
<title>3575</title>
<ellipse fill="white" stroke="black" cx="331.28" cy="-216.96" rx="28.98" ry="28.98"/>
<text text-anchor="middle" x="331.28" y="-214.76" font-family="Times,serif" font-size="9.00">3575</text>
</g>
<!-- 3575&#45;&gt;1793 -->
<g id="edge17" class="edge">
<title>3575&#45;&gt;1793</title>
<path fill="none" stroke="green" stroke-width="0.32" d="M359.15,-208.51C394.76,-198.41 457.7,-178.53 507.28,-151.97 509.62,-150.71 511.98,-149.33 514.31,-147.87"/>
<polygon fill="green" stroke="green" stroke-width="0.32" points="516.74,-150.45 523.08,-141.96 512.83,-144.64 516.74,-150.45"/>
</g>
<!-- 3713 -->
<g id="node13" class="node">
<title>3713</title>
<ellipse fill="white" stroke="black" cx="293.28" cy="-122.97" rx="28.98" ry="28.98"/>
<text text-anchor="middle" x="293.28" y="-120.77" font-family="Times,serif" font-size="9.00">3713</text>
</g>
<!-- 3575&#45;&gt;3713 -->
<g id="edge28" class="edge">
<title>3575&#45;&gt;3713</title>
<path fill="none" stroke="red" stroke-width="0.4" d="M320.5,-189.84C316.61,-180.43 312.15,-169.63 307.98,-159.54"/>
<polygon fill="red" stroke="red" stroke-width="0.4" points="311.15,-158.06 304.1,-150.15 304.68,-160.73 311.15,-158.06"/>
</g>
<!-- 3713&#45;&gt;2679 -->
<g id="edge26" class="edge">
<title>3713&#45;&gt;2679</title>
<path fill="none" stroke="red" stroke-width="0.32" d="M275.27,-100.18C265.31,-88.12 252.79,-72.97 241.94,-59.83"/>
<polygon fill="red" stroke="red" stroke-width="0.32" points="244.5,-57.43 235.43,-51.95 239.1,-61.89 244.5,-57.43"/>
</g>
<!-- 3084 -->
<g id="node16" class="node">
<title>3084</title>
<ellipse fill="white" stroke="black" cx="255.28" cy="-310.94" rx="28.98" ry="28.98"/>
<text text-anchor="middle" x="255.28" y="-308.74" font-family="Times,serif" font-size="9.00">3084</text>
</g>
<!-- 3084&#45;&gt;3575 -->
<g id="edge20" class="edge">
<title>3084&#45;&gt;3575</title>
<path fill="none" stroke="green" stroke-width="0.2" d="M273.3,-288.14C283.26,-276.09 295.78,-260.93 306.63,-247.79"/>
<polygon fill="green" stroke="green" stroke-width="0.2" points="309.47,-249.86 313.14,-239.92 304.07,-245.4 309.47,-249.86"/>
</g>
<!-- 1101 -->
<g id="node17" class="node">
<title>1101</title>
<ellipse fill="white" stroke="black" cx="255.28" cy="-216.96" rx="28.98" ry="28.98"/>
<text text-anchor="middle" x="255.28" y="-214.76" font-family="Times,serif" font-size="9.00">1101</text>
</g>
<!-- 3084&#45;&gt;1101 -->
<g id="edge19" class="edge">
<title>3084&#45;&gt;1101</title>
<path fill="none" stroke="red" stroke-width="0.19" d="M255.28,-281.84C255.28,-273.8 255.28,-264.9 255.28,-256.36"/>
<polygon fill="red" stroke="red" stroke-width="0.19" points="258.78,-256.2 255.28,-246.2 251.78,-256.2 258.78,-256.2"/>
</g>
<!-- 1101&#45;&gt;2679 -->
<g id="edge15" class="edge">
<title>1101&#45;&gt;2679</title>
<path fill="none" stroke="red" stroke-width="1.08" d="M249.6,-188.12C243.06,-156.12 232.29,-103.43 225,-67.75"/>
<polygon fill="red" stroke="red" stroke-width="1.08" points="228.38,-66.82 222.95,-57.72 221.52,-68.22 228.38,-66.82"/>
</g>
<!-- 3117&#45;&gt;2679 -->
<g id="edge9" class="edge">
<title>3117&#45;&gt;2679</title>
<path fill="none" stroke="red" stroke-width="0.31" d="M170,-282.98C173.11,-271.6 176.59,-258.18 179.28,-245.95 192.95,-183.96 204.93,-111.1 211.63,-67.83"/>
<polygon fill="red" stroke="red" stroke-width="0.31" points="215.12,-68.17 213.18,-57.75 208.2,-67.11 215.12,-68.17"/>
</g>
<!-- 3117&#45;&gt;3386 -->
<g id="edge13" class="edge">
<title>3117&#45;&gt;3386</title>
<path fill="none" stroke="red" stroke-width="0.21" d="M155.98,-282.34C154.05,-273.88 151.89,-264.43 149.84,-255.43"/>
<polygon fill="red" stroke="red" stroke-width="0.21" points="153.22,-254.51 147.58,-245.54 146.39,-256.06 153.22,-254.51"/>
</g>
<!-- 2577 -->
<g id="node19" class="node">
<title>2577</title>
<ellipse fill="white" stroke="black" cx="211.28" cy="-404.92" rx="28.98" ry="28.98"/>
<text text-anchor="middle" x="211.28" y="-402.72" font-family="Times,serif" font-size="9.00">2577</text>
</g>
<!-- 2577&#45;&gt;1793 -->
<g id="edge6" class="edge">
<title>2577&#45;&gt;1793</title>
<path fill="none" stroke="red" stroke-width="0.5" stroke-dasharray="1,5" d="M239.87,-399.81C312.31,-389.14 498.75,-359.99 518.28,-339.93 564.21,-292.77 560.13,-209.78 552.84,-161.57"/>
<polygon fill="red" stroke="red" stroke-width="0.5" points="556.27,-160.85 551.2,-151.55 549.36,-161.98 556.27,-160.85"/>
</g>
<!-- 2577&#45;&gt;3117 -->
<g id="edge14" class="edge">
<title>2577&#45;&gt;3117</title>
<path fill="none" stroke="green" stroke-width="0.21" d="M197.89,-378.79C192.49,-368.65 186.18,-356.79 180.38,-345.9"/>
<polygon fill="green" stroke="green" stroke-width="0.21" points="183.45,-344.22 175.66,-337.04 177.27,-347.52 183.45,-344.22"/>
</g>
<!-- 1015 -->
<g id="node20" class="node">
<title>1015</title>
<ellipse fill="white" stroke="black" cx="621.28" cy="-404.92" rx="28.98" ry="28.98"/>
<text text-anchor="middle" x="621.28" y="-402.72" font-family="Times,serif" font-size="9.00">1015</text>
</g>
<!-- 1116 -->
<g id="node24" class="node">
<title>1116</title>
<ellipse fill="white" stroke="black" cx="621.28" cy="-310.94" rx="28.98" ry="28.98"/>
<text text-anchor="middle" x="621.28" y="-308.74" font-family="Times,serif" font-size="9.00">1116</text>
</g>
<!-- 1015&#45;&gt;1116 -->
<g id="edge24" class="edge">
<title>1015&#45;&gt;1116</title>
<path fill="none" stroke="red" stroke-width="0.26" d="M621.28,-375.82C621.28,-367.79 621.28,-358.88 621.28,-350.34"/>
<polygon fill="red" stroke="red" stroke-width="0.26" points="624.78,-350.18 621.28,-340.18 617.78,-350.18 624.78,-350.18"/>
</g>
<!-- 1849 -->
<g id="node21" class="node">
<title>1849</title>
<ellipse fill="white" stroke="black" cx="331.28" cy="-310.94" rx="28.98" ry="28.98"/>
<text text-anchor="middle" x="331.28" y="-308.74" font-family="Times,serif" font-size="9.00">1849</text>
</g>
<!-- 1849&#45;&gt;3575 -->
<g id="edge18" class="edge">
<title>1849&#45;&gt;3575</title>
<path fill="none" stroke="red" stroke-width="0.11" d="M331.28,-281.84C331.28,-273.8 331.28,-264.9 331.28,-256.36"/>
<polygon fill="red" stroke="red" stroke-width="0.11" points="334.78,-256.2 331.28,-246.2 327.78,-256.2 334.78,-256.2"/>
</g>
<!-- 3386&#45;&gt;3713 -->
<g id="edge25" class="edge">
<title>3386&#45;&gt;3713</title>
<path fill="none" stroke="red" stroke-width="0.37" d="M165.71,-201.18C191.3,-185.69 231.67,-161.26 260.13,-144.03"/>
<polygon fill="red" stroke="red" stroke-width="0.37" points="262.18,-146.89 268.92,-138.72 258.56,-140.9 262.18,-146.89"/>
</g>
<!-- 3386&#45;&gt;2679 -->
<g id="edge12" class="edge">
<title>3386&#45;&gt;2679</title>
<path fill="none" stroke="red" stroke-width="0.11" d="M149.64,-188.9C157.64,-163.91 170.49,-125.94 184.28,-93.98 188.6,-83.98 193.8,-73.37 198.79,-63.73"/>
<polygon fill="red" stroke="red" stroke-width="0.11" points="201.91,-65.31 203.46,-54.83 195.71,-62.06 201.91,-65.31"/>
</g>
<!-- 3675&#45;&gt;1793 -->
<g id="edge22" class="edge">
<title>3675&#45;&gt;1793</title>
<path fill="none" stroke="red" stroke-width="0.45" d="M487.3,-194.16C497.26,-182.1 509.78,-166.95 520.63,-153.81"/>
<polygon fill="red" stroke="red" stroke-width="0.45" points="523.47,-155.87 527.14,-145.94 518.07,-151.41 523.47,-155.87"/>
</g>
</g>
</svg>
