<?xml version="1.0" encoding="UTF-8" standalone="no"?>
<!DOCTYPE svg PUBLIC "-//W3C//DTD SVG 1.1//EN"
 "http://www.w3.org/Graphics/SVG/1.1/DTD/svg11.dtd">
<!-- Generated by graphviz version 2.43.0 (0)
 -->
<!-- Title: %3 Pages: 1 -->
<svg width="438pt" height="236pt"
 viewBox="0.00 0.00 438.03 235.56" xmlns="http://www.w3.org/2000/svg" xmlns:xlink="http://www.w3.org/1999/xlink">
<g id="graph0" class="graph" transform="scale(1 1) rotate(0) translate(4 231.56)">
<title>%3</title>
<polygon fill="white" stroke="transparent" points="-4,4 -4,-231.56 434.03,-231.56 434.03,4 -4,4"/>
<!-- I1 -->
<g id="node1" class="node">
<title>I1</title>
<polygon fill="lightgray" stroke="black" points="98.28,-211.81 72.28,-211.81 72.28,-193.81 98.28,-193.81 98.28,-211.81"/>
<text text-anchor="middle" x="85.28" y="-200.61" font-family="Times,serif" font-size="9.00">I1</text>
</g>
<!-- right -->
<g id="node10" class="node">
<title>right</title>
<ellipse fill="lightblue" stroke="black" cx="28.28" cy="-113.78" rx="28.07" ry="28.07"/>
<text text-anchor="middle" x="28.28" y="-111.58" font-family="Times,serif" font-size="9.00">right</text>
</g>
<!-- I1&#45;&gt;right -->
<g id="edge4" class="edge">
<title>I1&#45;&gt;right</title>
<path fill="none" stroke="green" stroke-width="1.25" d="M80.02,-193.78C73.03,-183.1 60.26,-163.6 49.16,-146.65"/>
<polygon fill="green" stroke="green" stroke-width="1.25" points="51.95,-144.52 43.54,-138.08 46.09,-148.36 51.95,-144.52"/>
</g>
<!-- 597 -->
<g id="node12" class="node">
<title>597</title>
<ellipse fill="white" stroke="black" cx="99.28" cy="-113.78" rx="25" ry="25"/>
<text text-anchor="middle" x="99.28" y="-111.58" font-family="Times,serif" font-size="9.00">597</text>
</g>
<!-- I1&#45;&gt;597 -->
<g id="edge3" class="edge">
<title>I1&#45;&gt;597</title>
<path fill="none" stroke="red" stroke-width="0.31" d="M86.58,-193.78C88.24,-183.47 91.22,-164.92 93.88,-148.39"/>
<polygon fill="red" stroke="red" stroke-width="0.31" points="97.34,-148.88 95.48,-138.45 90.43,-147.77 97.34,-148.88"/>
</g>
<!-- I2 -->
<g id="node2" class="node">
<title>I2</title>
<polygon fill="lightgray" stroke="black" points="41.28,-211.81 15.28,-211.81 15.28,-193.81 41.28,-193.81 41.28,-211.81"/>
<text text-anchor="middle" x="28.28" y="-200.61" font-family="Times,serif" font-size="9.00">I2</text>
</g>
<!-- I2&#45;&gt;right -->
<g id="edge1" class="edge">
<title>I2&#45;&gt;right</title>
<path fill="none" stroke="red" stroke-width="0.67" d="M28.28,-193.78C28.28,-184.35 28.28,-168.02 28.28,-152.65"/>
<polygon fill="red" stroke="red" stroke-width="0.67" points="31.78,-152.26 28.28,-142.26 24.78,-152.26 31.78,-152.26"/>
</g>
<!-- I3 -->
<g id="node3" class="node">
<title>I3</title>
<polygon fill="lightgray" stroke="black" points="142.28,-211.81 116.28,-211.81 116.28,-193.81 142.28,-193.81 142.28,-211.81"/>
<text text-anchor="middle" x="129.28" y="-200.61" font-family="Times,serif" font-size="9.00">I3</text>
</g>
<!-- I4 -->
<g id="node4" class="node">
<title>I4</title>
<polygon fill="lightgray" stroke="black" points="186.28,-211.81 160.28,-211.81 160.28,-193.81 186.28,-193.81 186.28,-211.81"/>
<text text-anchor="middle" x="173.28" y="-200.61" font-family="Times,serif" font-size="9.00">I4</text>
</g>
<!-- I5 -->
<g id="node5" class="node">
<title>I5</title>
<polygon fill="lightgray" stroke="black" points="230.28,-211.81 204.28,-211.81 204.28,-193.81 230.28,-193.81 230.28,-211.81"/>
<text text-anchor="middle" x="217.28" y="-200.61" font-family="Times,serif" font-size="9.00">I5</text>
</g>
<!-- left -->
<g id="node9" class="node">
<title>left</title>
<ellipse fill="lightblue" stroke="black" cx="217.28" cy="-113.78" rx="22.76" ry="22.76"/>
<text text-anchor="middle" x="217.28" y="-111.58" font-family="Times,serif" font-size="9.00">left</text>
</g>
<!-- I5&#45;&gt;left -->
<g id="edge2" class="edge">
<title>I5&#45;&gt;left</title>
<path fill="none" stroke="green" stroke-width="1.43" d="M217.28,-193.78C217.28,-183.12 217.28,-163.66 217.28,-146.72"/>
<polygon fill="green" stroke="green" stroke-width="1.43" points="220.78,-146.6 217.28,-136.6 213.78,-146.6 220.78,-146.6"/>
</g>
<!-- I6 -->
<g id="node6" class="node">
<title>I6</title>
<polygon fill="lightgray" stroke="black" points="274.28,-211.81 248.28,-211.81 248.28,-193.81 274.28,-193.81 274.28,-211.81"/>
<text text-anchor="middle" x="261.28" y="-200.61" font-family="Times,serif" font-size="9.00">I6</text>
</g>
<!-- I7 -->
<g id="node7" class="node">
<title>I7</title>
<polygon fill="lightgray" stroke="black" points="318.28,-211.81 292.28,-211.81 292.28,-193.81 318.28,-193.81 318.28,-211.81"/>
<text text-anchor="middle" x="305.28" y="-200.61" font-family="Times,serif" font-size="9.00">I7</text>
</g>
<!-- I8 -->
<g id="node8" class="node">
<title>I8</title>
<polygon fill="lightgray" stroke="black" points="362.28,-211.81 336.28,-211.81 336.28,-193.81 362.28,-193.81 362.28,-211.81"/>
<text text-anchor="middle" x="349.28" y="-200.61" font-family="Times,serif" font-size="9.00">I8</text>
</g>
<!-- 367 -->
<g id="node11" class="node">
<title>367</title>
<ellipse fill="white" stroke="black" cx="28.28" cy="-24.75" rx="25" ry="25"/>
<text text-anchor="middle" x="28.28" y="-22.55" font-family="Times,serif" font-size="9.00">367</text>
</g>
<!-- right&#45;&gt;367 -->
<g id="edge5" class="edge">
<title>right&#45;&gt;367</title>
<path fill="none" stroke="green" stroke-width="0.18" d="M28.28,-85.24C28.28,-77.1 28.28,-68.09 28.28,-59.6"/>
<polygon fill="green" stroke="green" stroke-width="0.18" points="31.78,-59.59 28.28,-49.59 24.78,-59.59 31.78,-59.59"/>
</g>
<!-- 445 -->
<g id="node13" class="node">
<title>445</title>
<ellipse fill="white" stroke="black" cx="405.28" cy="-202.81" rx="25" ry="25"/>
<text text-anchor="middle" x="405.28" y="-200.61" font-family="Times,serif" font-size="9.00">445</text>
</g>
</g>
</svg>
