<?xml version="1.0" encoding="UTF-8" standalone="no"?>
<!DOCTYPE svg PUBLIC "-//W3C//DTD SVG 1.1//EN"
 "http://www.w3.org/Graphics/SVG/1.1/DTD/svg11.dtd">
<!-- Generated by graphviz version 2.43.0 (0)
 -->
<!-- Title: %3 Pages: 1 -->
<svg width="417pt" height="236pt"
 viewBox="0.00 0.00 417.00 235.56" xmlns="http://www.w3.org/2000/svg" xmlns:xlink="http://www.w3.org/1999/xlink">
<g id="graph0" class="graph" transform="scale(1 1) rotate(0) translate(4 231.56)">
<title>%3</title>
<polygon fill="white" stroke="transparent" points="-4,4 -4,-231.56 413,-231.56 413,4 -4,4"/>
<!-- I1 -->
<g id="node1" class="node">
<title>I1</title>
<polygon fill="lightgray" stroke="black" points="26,-211.81 0,-211.81 0,-193.81 26,-193.81 26,-211.81"/>
<text text-anchor="middle" x="13" y="-200.61" font-family="Times,serif" font-size="9.00">I1</text>
</g>
<!-- right -->
<g id="node10" class="node">
<title>right</title>
<ellipse fill="lightblue" stroke="black" cx="83" cy="-113.78" rx="28.07" ry="28.07"/>
<text text-anchor="middle" x="83" y="-111.58" font-family="Times,serif" font-size="9.00">right</text>
</g>
<!-- I1&#45;&gt;right -->
<g id="edge1" class="edge">
<title>I1&#45;&gt;right</title>
<path fill="none" stroke="green" stroke-width="1.33" d="M19.46,-193.78C28.42,-182.64 45.1,-161.91 59.12,-144.48"/>
<polygon fill="green" stroke="green" stroke-width="1.33" points="62.2,-146.23 65.74,-136.24 56.75,-141.84 62.2,-146.23"/>
</g>
<!-- I2 -->
<g id="node2" class="node">
<title>I2</title>
<polygon fill="lightgray" stroke="black" points="70,-211.81 44,-211.81 44,-193.81 70,-193.81 70,-211.81"/>
<text text-anchor="middle" x="57" y="-200.61" font-family="Times,serif" font-size="9.00">I2</text>
</g>
<!-- I2&#45;&gt;right -->
<g id="edge2" class="edge">
<title>I2&#45;&gt;right</title>
<path fill="none" stroke="red" stroke-width="0.55" d="M59.4,-193.78C62.34,-183.96 67.5,-166.66 72.26,-150.75"/>
<polygon fill="red" stroke="red" stroke-width="0.55" points="75.63,-151.68 75.14,-141.1 68.92,-149.68 75.63,-151.68"/>
</g>
<!-- I3 -->
<g id="node3" class="node">
<title>I3</title>
<polygon fill="lightgray" stroke="black" points="321,-211.81 295,-211.81 295,-193.81 321,-193.81 321,-211.81"/>
<text text-anchor="middle" x="308" y="-200.61" font-family="Times,serif" font-size="9.00">I3</text>
</g>
<!-- I4 -->
<g id="node4" class="node">
<title>I4</title>
<polygon fill="lightgray" stroke="black" points="365,-211.81 339,-211.81 339,-193.81 365,-193.81 365,-211.81"/>
<text text-anchor="middle" x="352" y="-200.61" font-family="Times,serif" font-size="9.00">I4</text>
</g>
<!-- I5 -->
<g id="node5" class="node">
<title>I5</title>
<polygon fill="lightgray" stroke="black" points="182,-211.81 156,-211.81 156,-193.81 182,-193.81 182,-211.81"/>
<text text-anchor="middle" x="169" y="-200.61" font-family="Times,serif" font-size="9.00">I5</text>
</g>
<!-- left -->
<g id="node9" class="node">
<title>left</title>
<ellipse fill="lightblue" stroke="black" cx="216" cy="-113.78" rx="22.76" ry="22.76"/>
<text text-anchor="middle" x="216" y="-111.58" font-family="Times,serif" font-size="9.00">left</text>
</g>
<!-- I5&#45;&gt;left -->
<g id="edge3" class="edge">
<title>I5&#45;&gt;left</title>
<path fill="none" stroke="green" stroke-width="0.71" d="M173.34,-193.78C179.53,-182.32 191.22,-160.68 200.79,-142.94"/>
<polygon fill="green" stroke="green" stroke-width="0.71" points="203.9,-144.56 205.57,-134.1 197.74,-141.23 203.9,-144.56"/>
</g>
<!-- I5&#45;&gt;right -->
<g id="edge4" class="edge">
<title>I5&#45;&gt;right</title>
<path fill="none" stroke="green" stroke-width="0.46" stroke-dasharray="1,5" d="M161.35,-193.38C157.16,-188.8 151.85,-183.07 147,-178.07 135.14,-165.82 121.77,-152.51 110.32,-141.28"/>
<polygon fill="green" stroke="green" stroke-width="0.46" points="112.71,-138.72 103.12,-134.23 107.82,-143.72 112.71,-138.72"/>
</g>
<!-- 212 -->
<g id="node12" class="node">
<title>212</title>
<ellipse fill="white" stroke="black" cx="216" cy="-24.75" rx="25" ry="25"/>
<text text-anchor="middle" x="216" y="-22.55" font-family="Times,serif" font-size="9.00">212</text>
</g>
<!-- I5&#45;&gt;212 -->
<g id="edge8" class="edge">
<title>I5&#45;&gt;212</title>
<path fill="none" stroke="green" stroke-width="0.8" d="M169.05,-193.7C169.37,-174.44 171.45,-124.67 184,-85.5 187.34,-75.08 192.47,-64.34 197.66,-54.9"/>
<polygon fill="green" stroke="green" stroke-width="0.8" points="200.86,-56.36 202.8,-45.94 194.79,-52.87 200.86,-56.36"/>
</g>
<!-- I6 -->
<g id="node6" class="node">
<title>I6</title>
<polygon fill="lightgray" stroke="black" points="277,-211.81 251,-211.81 251,-193.81 277,-193.81 277,-211.81"/>
<text text-anchor="middle" x="264" y="-200.61" font-family="Times,serif" font-size="9.00">I6</text>
</g>
<!-- I6&#45;&gt;left -->
<g id="edge5" class="edge">
<title>I6&#45;&gt;left</title>
<path fill="none" stroke="green" stroke-width="0.47" stroke-dasharray="1,5" d="M259.57,-193.78C253.25,-182.32 241.31,-160.68 231.53,-142.94"/>
<polygon fill="green" stroke="green" stroke-width="0.47" points="234.55,-141.16 226.65,-134.1 228.42,-144.54 234.55,-141.16"/>
</g>
<!-- I6&#45;&gt;212 -->
<g id="edge10" class="edge">
<title>I6&#45;&gt;212</title>
<path fill="none" stroke="red" stroke-width="0.25" d="M263.86,-193.7C263.33,-174.44 260.73,-124.66 248,-85.5 244.62,-75.09 239.47,-64.36 234.29,-54.91"/>
<polygon fill="red" stroke="red" stroke-width="0.25" points="237.16,-52.89 229.15,-45.95 231.09,-56.37 237.16,-52.89"/>
</g>
<!-- I7 -->
<g id="node7" class="node">
<title>I7</title>
<polygon fill="lightgray" stroke="black" points="409,-211.81 383,-211.81 383,-193.81 409,-193.81 409,-211.81"/>
<text text-anchor="middle" x="396" y="-200.61" font-family="Times,serif" font-size="9.00">I7</text>
</g>
<!-- I8 -->
<g id="node8" class="node">
<title>I8</title>
<polygon fill="lightgray" stroke="black" points="229,-211.81 203,-211.81 203,-193.81 229,-193.81 229,-211.81"/>
<text text-anchor="middle" x="216" y="-200.61" font-family="Times,serif" font-size="9.00">I8</text>
</g>
<!-- I8&#45;&gt;left -->
<g id="edge6" class="edge">
<title>I8&#45;&gt;left</title>
<path fill="none" stroke="red" stroke-width="0.42" stroke-dasharray="1,5" d="M216,-193.78C216,-183.12 216,-163.66 216,-146.72"/>
<polygon fill="red" stroke="red" stroke-width="0.42" points="219.5,-146.6 216,-136.6 212.5,-146.6 219.5,-146.6"/>
</g>
<!-- left&#45;&gt;212 -->
<g id="edge9" class="edge">
<title>left&#45;&gt;212</title>
<path fill="none" stroke="red" stroke-width="0.3" d="M216,-90.82C216,-81.38 216,-70.12 216,-59.65"/>
<polygon fill="red" stroke="red" stroke-width="0.3" points="219.5,-59.54 216,-49.54 212.5,-59.54 219.5,-59.54"/>
</g>
<!-- 107 -->
<g id="node11" class="node">
<title>107</title>
<ellipse fill="white" stroke="black" cx="113" cy="-202.81" rx="25" ry="25"/>
<text text-anchor="middle" x="113" y="-200.61" font-family="Times,serif" font-size="9.00">107</text>
</g>
<!-- 107&#45;&gt;right -->
<g id="edge7" class="edge">
<title>107&#45;&gt;right</title>
<path fill="none" stroke="red" stroke-width="0.72" stroke-dasharray="1,5" d="M105.12,-178.95C102.13,-170.28 98.65,-160.18 95.35,-150.6"/>
<polygon fill="red" stroke="red" stroke-width="0.72" points="98.56,-149.19 92,-140.88 91.95,-151.47 98.56,-149.19"/>
</g>
</g>
</svg>
