<?xml version="1.0" encoding="UTF-8" standalone="no"?>
<!DOCTYPE svg PUBLIC "-//W3C//DTD SVG 1.1//EN"
 "http://www.w3.org/Graphics/SVG/1.1/DTD/svg11.dtd">
<!-- Generated by graphviz version 2.43.0 (0)
 -->
<!-- Title: %3 Pages: 1 -->
<svg width="432pt" height="327pt"
 viewBox="0.00 0.00 431.99 326.72" xmlns="http://www.w3.org/2000/svg" xmlns:xlink="http://www.w3.org/1999/xlink">
<g id="graph0" class="graph" transform="scale(1 1) rotate(0) translate(4 322.72)">
<title>%3</title>
<polygon fill="white" stroke="transparent" points="-4,4 -4,-322.72 427.99,-322.72 427.99,4 -4,4"/>
<!-- I1 -->
<g id="node1" class="node">
<title>I1</title>
<polygon fill="lightgray" stroke="black" points="26,-123.49 0,-123.49 0,-105.49 26,-105.49 26,-123.49"/>
<text text-anchor="middle" x="13" y="-112.29" font-family="Times,serif" font-size="9.00">I1</text>
</g>
<!-- 984 -->
<g id="node12" class="node">
<title>984</title>
<ellipse fill="white" stroke="black" cx="80" cy="-24.75" rx="25" ry="25"/>
<text text-anchor="middle" x="80" y="-22.55" font-family="Times,serif" font-size="9.00">984</text>
</g>
<!-- I1&#45;&gt;984 -->
<g id="edge6" class="edge">
<title>I1&#45;&gt;984</title>
<path fill="none" stroke="green" stroke-width="0.48" d="M19.18,-105.39C28.23,-93.55 45.5,-70.93 59.33,-52.82"/>
<polygon fill="green" stroke="green" stroke-width="0.48" points="62.11,-54.94 65.4,-44.87 56.55,-50.69 62.11,-54.94"/>
</g>
<!-- I2 -->
<g id="node2" class="node">
<title>I2</title>
<polygon fill="lightgray" stroke="black" points="216,-298.73 190,-298.73 190,-280.73 216,-280.73 216,-298.73"/>
<text text-anchor="middle" x="203" y="-287.53" font-family="Times,serif" font-size="9.00">I2</text>
</g>
<!-- I3 -->
<g id="node3" class="node">
<title>I3</title>
<polygon fill="lightgray" stroke="black" points="118,-211.11 92,-211.11 92,-193.11 118,-193.11 118,-211.11"/>
<text text-anchor="middle" x="105" y="-199.91" font-family="Times,serif" font-size="9.00">I3</text>
</g>
<!-- right -->
<g id="node10" class="node">
<title>right</title>
<ellipse fill="lightblue" stroke="black" cx="72" cy="-114.49" rx="28.07" ry="28.07"/>
<text text-anchor="middle" x="72" y="-112.29" font-family="Times,serif" font-size="9.00">right</text>
</g>
<!-- I3&#45;&gt;right -->
<g id="edge1" class="edge">
<title>I3&#45;&gt;right</title>
<path fill="none" stroke="green" stroke-width="2.58" d="M101.84,-192.9C98.07,-183.12 91.53,-166.16 85.53,-150.6"/>
<polygon fill="green" stroke="green" stroke-width="2.58" points="88.76,-149.24 81.9,-141.17 82.23,-151.76 88.76,-149.24"/>
</g>
<!-- 1107 -->
<g id="node11" class="node">
<title>1107</title>
<ellipse fill="white" stroke="black" cx="147" cy="-114.49" rx="28.98" ry="28.98"/>
<text text-anchor="middle" x="147" y="-112.29" font-family="Times,serif" font-size="9.00">1107</text>
</g>
<!-- I3&#45;&gt;1107 -->
<g id="edge4" class="edge">
<title>I3&#45;&gt;1107</title>
<path fill="none" stroke="green" stroke-width="0.36" d="M109.03,-192.9C113.9,-182.96 122.42,-165.6 130.15,-149.83"/>
<polygon fill="green" stroke="green" stroke-width="0.36" points="133.32,-151.32 134.59,-140.8 127.04,-148.23 133.32,-151.32"/>
</g>
<!-- I4 -->
<g id="node4" class="node">
<title>I4</title>
<polygon fill="lightgray" stroke="black" points="74,-211.11 48,-211.11 48,-193.11 74,-193.11 74,-211.11"/>
<text text-anchor="middle" x="61" y="-199.91" font-family="Times,serif" font-size="9.00">I4</text>
</g>
<!-- I4&#45;&gt;right -->
<g id="edge2" class="edge">
<title>I4&#45;&gt;right</title>
<path fill="none" stroke="red" stroke-width="1.34" d="M62.05,-192.9C63.25,-183.58 65.29,-167.73 67.21,-152.79"/>
<polygon fill="red" stroke="red" stroke-width="1.34" points="70.7,-153.05 68.51,-142.68 63.76,-152.16 70.7,-153.05"/>
</g>
<!-- I5 -->
<g id="node5" class="node">
<title>I5</title>
<polygon fill="lightgray" stroke="black" points="260,-298.73 234,-298.73 234,-280.73 260,-280.73 260,-298.73"/>
<text text-anchor="middle" x="247" y="-287.53" font-family="Times,serif" font-size="9.00">I5</text>
</g>
<!-- I6 -->
<g id="node6" class="node">
<title>I6</title>
<polygon fill="lightgray" stroke="black" points="172,-298.73 146,-298.73 146,-280.73 172,-280.73 172,-298.73"/>
<text text-anchor="middle" x="159" y="-287.53" font-family="Times,serif" font-size="9.00">I6</text>
</g>
<!-- left -->
<g id="node9" class="node">
<title>left</title>
<ellipse fill="lightblue" stroke="black" cx="159" cy="-202.11" rx="22.76" ry="22.76"/>
<text text-anchor="middle" x="159" y="-199.91" font-family="Times,serif" font-size="9.00">left</text>
</g>
<!-- I6&#45;&gt;left -->
<g id="edge3" class="edge">
<title>I6&#45;&gt;left</title>
<path fill="none" stroke="red" stroke-width="1.15" d="M159,-280.52C159,-270.08 159,-251.45 159,-235.08"/>
<polygon fill="red" stroke="red" stroke-width="1.15" points="162.5,-234.75 159,-224.75 155.5,-234.75 162.5,-234.75"/>
</g>
<!-- I7 -->
<g id="node7" class="node">
<title>I7</title>
<polygon fill="lightgray" stroke="black" points="304,-298.73 278,-298.73 278,-280.73 304,-280.73 304,-298.73"/>
<text text-anchor="middle" x="291" y="-287.53" font-family="Times,serif" font-size="9.00">I7</text>
</g>
<!-- I8 -->
<g id="node8" class="node">
<title>I8</title>
<polygon fill="lightgray" stroke="black" points="348,-298.73 322,-298.73 322,-280.73 348,-280.73 348,-298.73"/>
<text text-anchor="middle" x="335" y="-287.53" font-family="Times,serif" font-size="9.00">I8</text>
</g>
<!-- left&#45;&gt;1107 -->
<g id="edge5" class="edge">
<title>left&#45;&gt;1107</title>
<path fill="none" stroke="green" stroke-width="0.33" stroke-dasharray="1,5" d="M155.97,-179.5C154.85,-171.51 153.55,-162.2 152.29,-153.2"/>
<polygon fill="green" stroke="green" stroke-width="0.33" points="155.75,-152.67 150.89,-143.25 148.81,-153.64 155.75,-152.67"/>
</g>
<!-- 1107&#45;&gt;984 -->
<g id="edge7" class="edge">
<title>1107&#45;&gt;984</title>
<path fill="none" stroke="red" stroke-width="0.12" d="M129.75,-90.89C120.93,-79.34 110.12,-65.19 100.84,-53.04"/>
<polygon fill="red" stroke="red" stroke-width="0.12" points="103.55,-50.82 94.7,-45 97.99,-55.07 103.55,-50.82"/>
</g>
<!-- 1337 -->
<g id="node13" class="node">
<title>1337</title>
<ellipse fill="white" stroke="black" cx="395" cy="-289.73" rx="28.98" ry="28.98"/>
<text text-anchor="middle" x="395" y="-287.53" font-family="Times,serif" font-size="9.00">1337</text>
</g>
</g>
</svg>
