<?xml version="1.0" encoding="UTF-8" standalone="no"?>
<!DOCTYPE svg PUBLIC "-//W3C//DTD SVG 1.1//EN"
 "http://www.w3.org/Graphics/SVG/1.1/DTD/svg11.dtd">
<!-- Generated by graphviz version 2.43.0 (0)
 -->
<!-- Title: %3 Pages: 1 -->
<svg width="342pt" height="119pt"
 viewBox="0.00 0.00 342.00 118.57" xmlns="http://www.w3.org/2000/svg" xmlns:xlink="http://www.w3.org/1999/xlink">
<g id="graph0" class="graph" transform="scale(1 1) rotate(0) translate(4 114.57)">
<title>%3</title>
<polygon fill="white" stroke="transparent" points="-4,4 -4,-114.57 338,-114.57 338,4 -4,4"/>
<!-- I1 -->
<g id="node1" class="node">
<title>I1</title>
<polygon fill="lightgray" stroke="black" points="26,-110.57 0,-110.57 0,-92.57 26,-92.57 26,-110.57"/>
<text text-anchor="middle" x="13" y="-99.37" font-family="Times,serif" font-size="9.00">I1</text>
</g>
<!-- I2 -->
<g id="node2" class="node">
<title>I2</title>
<polygon fill="lightgray" stroke="black" points="70,-110.57 44,-110.57 44,-92.57 70,-92.57 70,-110.57"/>
<text text-anchor="middle" x="57" y="-99.37" font-family="Times,serif" font-size="9.00">I2</text>
</g>
<!-- I3 -->
<g id="node3" class="node">
<title>I3</title>
<polygon fill="lightgray" stroke="black" points="114,-110.57 88,-110.57 88,-92.57 114,-92.57 114,-110.57"/>
<text text-anchor="middle" x="101" y="-99.37" font-family="Times,serif" font-size="9.00">I3</text>
</g>
<!-- right -->
<g id="node10" class="node">
<title>right</title>
<ellipse fill="lightblue" stroke="black" cx="167" cy="-28.28" rx="28.07" ry="28.07"/>
<text text-anchor="middle" x="167" y="-26.08" font-family="Times,serif" font-size="9.00">right</text>
</g>
<!-- I3&#45;&gt;right -->
<g id="edge1" class="edge">
<title>I3&#45;&gt;right</title>
<path fill="none" stroke="green" stroke-width="0.66" d="M108.57,-92.39C116.53,-83.79 129.51,-69.78 141.21,-57.14"/>
<polygon fill="green" stroke="green" stroke-width="0.66" points="144.05,-59.22 148.28,-49.5 138.92,-54.46 144.05,-59.22"/>
</g>
<!-- I4 -->
<g id="node4" class="node">
<title>I4</title>
<polygon fill="lightgray" stroke="black" points="158,-110.57 132,-110.57 132,-92.57 158,-92.57 158,-110.57"/>
<text text-anchor="middle" x="145" y="-99.37" font-family="Times,serif" font-size="9.00">I4</text>
</g>
<!-- I4&#45;&gt;right -->
<g id="edge2" class="edge">
<title>I4&#45;&gt;right</title>
<path fill="none" stroke="red" stroke-width="0.77" d="M147.52,-92.39C149.63,-85.57 152.78,-75.35 155.94,-65.11"/>
<polygon fill="red" stroke="red" stroke-width="0.77" points="159.34,-65.99 158.94,-55.4 152.65,-63.92 159.34,-65.99"/>
</g>
<!-- I5 -->
<g id="node5" class="node">
<title>I5</title>
<polygon fill="lightgray" stroke="black" points="202,-110.57 176,-110.57 176,-92.57 202,-92.57 202,-110.57"/>
<text text-anchor="middle" x="189" y="-99.37" font-family="Times,serif" font-size="9.00">I5</text>
</g>
<!-- I5&#45;&gt;right -->
<g id="edge3" class="edge">
<title>I5&#45;&gt;right</title>
<path fill="none" stroke="red" stroke-width="0.46" d="M186.48,-92.39C184.37,-85.57 181.22,-75.35 178.06,-65.11"/>
<polygon fill="red" stroke="red" stroke-width="0.46" points="181.35,-63.92 175.06,-55.4 174.66,-65.99 181.35,-63.92"/>
</g>
<!-- I6 -->
<g id="node6" class="node">
<title>I6</title>
<polygon fill="lightgray" stroke="black" points="290,-110.57 264,-110.57 264,-92.57 290,-92.57 290,-110.57"/>
<text text-anchor="middle" x="277" y="-99.37" font-family="Times,serif" font-size="9.00">I6</text>
</g>
<!-- left -->
<g id="node9" class="node">
<title>left</title>
<ellipse fill="lightblue" stroke="black" cx="277" cy="-28.28" rx="22.76" ry="22.76"/>
<text text-anchor="middle" x="277" y="-26.08" font-family="Times,serif" font-size="9.00">left</text>
</g>
<!-- I6&#45;&gt;left -->
<g id="edge4" class="edge">
<title>I6&#45;&gt;left</title>
<path fill="none" stroke="red" stroke-width="0.38" d="M277,-92.39C277,-84.72 277,-72.74 277,-61.27"/>
<polygon fill="red" stroke="red" stroke-width="0.38" points="280.5,-61.02 277,-51.02 273.5,-61.02 280.5,-61.02"/>
</g>
<!-- I7 -->
<g id="node7" class="node">
<title>I7</title>
<polygon fill="lightgray" stroke="black" points="334,-110.57 308,-110.57 308,-92.57 334,-92.57 334,-110.57"/>
<text text-anchor="middle" x="321" y="-99.37" font-family="Times,serif" font-size="9.00">I7</text>
</g>
<!-- I8 -->
<g id="node8" class="node">
<title>I8</title>
<polygon fill="lightgray" stroke="black" points="246,-110.57 220,-110.57 220,-92.57 246,-92.57 246,-110.57"/>
<text text-anchor="middle" x="233" y="-99.37" font-family="Times,serif" font-size="9.00">I8</text>
</g>
<!-- I8&#45;&gt;right -->
<g id="edge5" class="edge">
<title>I8&#45;&gt;right</title>
<path fill="none" stroke="red" stroke-width="0.12" d="M225.43,-92.39C217.47,-83.79 204.49,-69.78 192.79,-57.14"/>
<polygon fill="red" stroke="red" stroke-width="0.12" points="195.08,-54.46 185.72,-49.5 189.95,-59.22 195.08,-54.46"/>
</g>
</g>
</svg>
