<?xml version="1.0" encoding="UTF-8" standalone="no"?>
<!DOCTYPE svg PUBLIC "-//W3C//DTD SVG 1.1//EN"
 "http://www.w3.org/Graphics/SVG/1.1/DTD/svg11.dtd">
<!-- Generated by graphviz version 2.43.0 (0)
 -->
<!-- Title: %3 Pages: 1 -->
<svg width="611pt" height="254pt"
 viewBox="0.00 0.00 611.28 253.95" xmlns="http://www.w3.org/2000/svg" xmlns:xlink="http://www.w3.org/1999/xlink">
<g id="graph0" class="graph" transform="scale(1 1) rotate(0) translate(4 249.95)">
<title>%3</title>
<polygon fill="white" stroke="transparent" points="-4,4 -4,-249.95 607.28,-249.95 607.28,4 -4,4"/>
<!-- I1 -->
<g id="node1" class="node">
<title>I1</title>
<polygon fill="lightgray" stroke="black" points="101.28,-225.96 75.28,-225.96 75.28,-207.96 101.28,-207.96 101.28,-225.96"/>
<text text-anchor="middle" x="88.28" y="-214.76" font-family="Times,serif" font-size="9.00">I1</text>
</g>
<!-- right -->
<g id="node10" class="node">
<title>right</title>
<ellipse fill="lightblue" stroke="black" cx="28.28" cy="-122.97" rx="28.07" ry="28.07"/>
<text text-anchor="middle" x="28.28" y="-120.77" font-family="Times,serif" font-size="9.00">right</text>
</g>
<!-- I1&#45;&gt;right -->
<g id="edge1" class="edge">
<title>I1&#45;&gt;right</title>
<path fill="none" stroke="green" stroke-width="1.55" d="M82.96,-207.79C75.38,-196.18 61.07,-174.24 48.99,-155.72"/>
<polygon fill="green" stroke="green" stroke-width="1.55" points="51.85,-153.69 43.45,-147.23 45.98,-157.52 51.85,-153.69"/>
</g>
<!-- 1993 -->
<g id="node13" class="node">
<title>1993</title>
<ellipse fill="white" stroke="black" cx="103.28" cy="-122.97" rx="28.98" ry="28.98"/>
<text text-anchor="middle" x="103.28" y="-120.77" font-family="Times,serif" font-size="9.00">1993</text>
</g>
<!-- I1&#45;&gt;1993 -->
<g id="edge5" class="edge">
<title>I1&#45;&gt;1993</title>
<path fill="none" stroke="red" stroke-width="0.14" d="M89.62,-207.79C91.29,-197.53 94.28,-179.19 97.04,-162.28"/>
<polygon fill="red" stroke="red" stroke-width="0.14" points="100.56,-162.45 98.71,-152.02 93.65,-161.32 100.56,-162.45"/>
</g>
<!-- I2 -->
<g id="node2" class="node">
<title>I2</title>
<polygon fill="lightgray" stroke="black" points="41.28,-225.96 15.28,-225.96 15.28,-207.96 41.28,-207.96 41.28,-225.96"/>
<text text-anchor="middle" x="28.28" y="-214.76" font-family="Times,serif" font-size="9.00">I2</text>
</g>
<!-- I2&#45;&gt;right -->
<g id="edge2" class="edge">
<title>I2&#45;&gt;right</title>
<path fill="none" stroke="red" stroke-width="1.25" d="M28.28,-207.79C28.28,-197.45 28.28,-178.93 28.28,-161.92"/>
<polygon fill="red" stroke="red" stroke-width="1.25" points="31.78,-161.61 28.28,-151.61 24.78,-161.61 31.78,-161.61"/>
</g>
<!-- I3 -->
<g id="node3" class="node">
<title>I3</title>
<polygon fill="lightgray" stroke="black" points="192.28,-225.96 166.28,-225.96 166.28,-207.96 192.28,-207.96 192.28,-225.96"/>
<text text-anchor="middle" x="179.28" y="-214.76" font-family="Times,serif" font-size="9.00">I3</text>
</g>
<!-- 1227 -->
<g id="node14" class="node">
<title>1227</title>
<ellipse fill="white" stroke="black" cx="179.28" cy="-122.97" rx="28.98" ry="28.98"/>
<text text-anchor="middle" x="179.28" y="-120.77" font-family="Times,serif" font-size="9.00">1227</text>
</g>
<!-- I3&#45;&gt;1227 -->
<g id="edge4" class="edge">
<title>I3&#45;&gt;1227</title>
<path fill="none" stroke="green" stroke-width="0.15" stroke-dasharray="1,5" d="M179.28,-207.79C179.28,-197.53 179.28,-179.19 179.28,-162.28"/>
<polygon fill="green" stroke="green" stroke-width="0.15" points="182.78,-162.02 179.28,-152.02 175.78,-162.02 182.78,-162.02"/>
</g>
<!-- I4 -->
<g id="node4" class="node">
<title>I4</title>
<polygon fill="lightgray" stroke="black" points="319.28,-225.96 293.28,-225.96 293.28,-207.96 319.28,-207.96 319.28,-225.96"/>
<text text-anchor="middle" x="306.28" y="-214.76" font-family="Times,serif" font-size="9.00">I4</text>
</g>
<!-- left -->
<g id="node9" class="node">
<title>left</title>
<ellipse fill="lightblue" stroke="black" cx="249.28" cy="-122.97" rx="22.76" ry="22.76"/>
<text text-anchor="middle" x="249.28" y="-120.77" font-family="Times,serif" font-size="9.00">left</text>
</g>
<!-- I4&#45;&gt;left -->
<g id="edge7" class="edge">
<title>I4&#45;&gt;left</title>
<path fill="none" stroke="green" stroke-width="0.47" d="M301.23,-207.79C293.46,-195.27 278.26,-170.73 266.3,-151.43"/>
<polygon fill="green" stroke="green" stroke-width="0.47" points="269.14,-149.37 260.9,-142.72 263.19,-153.06 269.14,-149.37"/>
</g>
<!-- 1160 -->
<g id="node12" class="node">
<title>1160</title>
<ellipse fill="white" stroke="black" cx="319.28" cy="-122.97" rx="28.98" ry="28.98"/>
<text text-anchor="middle" x="319.28" y="-120.77" font-family="Times,serif" font-size="9.00">1160</text>
</g>
<!-- I4&#45;&gt;1160 -->
<g id="edge8" class="edge">
<title>I4&#45;&gt;1160</title>
<path fill="none" stroke="red" stroke-width="0.15" d="M307.44,-207.79C308.89,-197.53 311.48,-179.19 313.87,-162.28"/>
<polygon fill="red" stroke="red" stroke-width="0.15" points="317.39,-162.41 315.32,-152.02 310.46,-161.43 317.39,-162.41"/>
</g>
<!-- I5 -->
<g id="node5" class="node">
<title>I5</title>
<polygon fill="lightgray" stroke="black" points="262.28,-225.96 236.28,-225.96 236.28,-207.96 262.28,-207.96 262.28,-225.96"/>
<text text-anchor="middle" x="249.28" y="-214.76" font-family="Times,serif" font-size="9.00">I5</text>
</g>
<!-- I5&#45;&gt;left -->
<g id="edge3" class="edge">
<title>I5&#45;&gt;left</title>
<path fill="none" stroke="green" stroke-width="0.99" d="M249.28,-207.79C249.28,-196.2 249.28,-174.31 249.28,-155.81"/>
<polygon fill="green" stroke="green" stroke-width="0.99" points="252.78,-155.69 249.28,-145.69 245.78,-155.69 252.78,-155.69"/>
</g>
<!-- I6 -->
<g id="node6" class="node">
<title>I6</title>
<polygon fill="lightgray" stroke="black" points="363.28,-225.96 337.28,-225.96 337.28,-207.96 363.28,-207.96 363.28,-225.96"/>
<text text-anchor="middle" x="350.28" y="-214.76" font-family="Times,serif" font-size="9.00">I6</text>
</g>
<!-- I7 -->
<g id="node7" class="node">
<title>I7</title>
<polygon fill="lightgray" stroke="black" points="407.28,-225.96 381.28,-225.96 381.28,-207.96 407.28,-207.96 407.28,-225.96"/>
<text text-anchor="middle" x="394.28" y="-214.76" font-family="Times,serif" font-size="9.00">I7</text>
</g>
<!-- I8 -->
<g id="node8" class="node">
<title>I8</title>
<polygon fill="lightgray" stroke="black" points="451.28,-225.96 425.28,-225.96 425.28,-207.96 451.28,-207.96 451.28,-225.96"/>
<text text-anchor="middle" x="438.28" y="-214.76" font-family="Times,serif" font-size="9.00">I8</text>
</g>
<!-- 889 -->
<g id="node17" class="node">
<title>889</title>
<ellipse fill="white" stroke="black" cx="28.28" cy="-28.99" rx="25" ry="25"/>
<text text-anchor="middle" x="28.28" y="-26.79" font-family="Times,serif" font-size="9.00">889</text>
</g>
<!-- right&#45;&gt;889 -->
<g id="edge6" class="edge">
<title>right&#45;&gt;889</title>
<path fill="none" stroke="red" stroke-width="0.44" d="M28.28,-94.38C28.28,-84.79 28.28,-73.93 28.28,-63.9"/>
<polygon fill="red" stroke="red" stroke-width="0.44" points="31.78,-63.83 28.28,-53.83 24.78,-63.83 31.78,-63.83"/>
</g>
<!-- 1607 -->
<g id="node11" class="node">
<title>1607</title>
<ellipse fill="white" stroke="black" cx="179.28" cy="-28.99" rx="28.98" ry="28.98"/>
<text text-anchor="middle" x="179.28" y="-26.79" font-family="Times,serif" font-size="9.00">1607</text>
</g>
<!-- 1227&#45;&gt;1607 -->
<g id="edge9" class="edge">
<title>1227&#45;&gt;1607</title>
<path fill="none" stroke="green" stroke-width="0.29" d="M179.28,-93.88C179.28,-85.84 179.28,-76.94 179.28,-68.39"/>
<polygon fill="green" stroke="green" stroke-width="0.29" points="182.78,-68.23 179.28,-58.23 175.78,-68.23 182.78,-68.23"/>
</g>
<!-- 2226 -->
<g id="node15" class="node">
<title>2226</title>
<ellipse fill="white" stroke="black" cx="498.28" cy="-216.96" rx="28.98" ry="28.98"/>
<text text-anchor="middle" x="498.28" y="-214.76" font-family="Times,serif" font-size="9.00">2226</text>
</g>
<!-- 1814 -->
<g id="node16" class="node">
<title>1814</title>
<ellipse fill="white" stroke="black" cx="574.28" cy="-216.96" rx="28.98" ry="28.98"/>
<text text-anchor="middle" x="574.28" y="-214.76" font-family="Times,serif" font-size="9.00">1814</text>
</g>
</g>
</svg>
