<?xml version="1.0" encoding="UTF-8" standalone="no"?>
<!DOCTYPE svg PUBLIC "-//W3C//DTD SVG 1.1//EN"
 "http://www.w3.org/Graphics/SVG/1.1/DTD/svg11.dtd">
<!-- Generated by graphviz version 2.43.0 (0)
 -->
<!-- Title: %3 Pages: 1 -->
<svg width="372pt" height="204pt"
 viewBox="0.00 0.00 372.38 204.07" xmlns="http://www.w3.org/2000/svg" xmlns:xlink="http://www.w3.org/1999/xlink">
<g id="graph0" class="graph" transform="scale(1 1) rotate(0) translate(4 200.07)">
<title>%3</title>
<polygon fill="white" stroke="transparent" points="-4,4 -4,-200.07 368.38,-200.07 368.38,4 -4,4"/>
<!-- I1 -->
<g id="node1" class="node">
<title>I1</title>
<polygon fill="lightgray" stroke="black" points="35.63,-196.07 9.63,-196.07 9.63,-178.07 35.63,-178.07 35.63,-196.07"/>
<text text-anchor="middle" x="22.63" y="-184.87" font-family="Times,serif" font-size="9.00">I1</text>
</g>
<!-- left -->
<g id="node9" class="node">
<title>left</title>
<ellipse fill="lightblue" stroke="black" cx="22.63" cy="-113.78" rx="22.76" ry="22.76"/>
<text text-anchor="middle" x="22.63" y="-111.58" font-family="Times,serif" font-size="9.00">left</text>
</g>
<!-- I1&#45;&gt;left -->
<g id="edge1" class="edge">
<title>I1&#45;&gt;left</title>
<path fill="none" stroke="red" stroke-width="0.12" stroke-dasharray="1,5" d="M22.63,-177.89C22.63,-170.22 22.63,-158.24 22.63,-146.77"/>
<polygon fill="red" stroke="red" stroke-width="0.12" points="26.13,-146.52 22.63,-136.52 19.13,-146.52 26.13,-146.52"/>
</g>
<!-- I2 -->
<g id="node2" class="node">
<title>I2</title>
<polygon fill="lightgray" stroke="black" points="133.63,-196.07 107.63,-196.07 107.63,-178.07 133.63,-178.07 133.63,-196.07"/>
<text text-anchor="middle" x="120.63" y="-184.87" font-family="Times,serif" font-size="9.00">I2</text>
</g>
<!-- I3 -->
<g id="node3" class="node">
<title>I3</title>
<polygon fill="lightgray" stroke="black" points="177.63,-196.07 151.63,-196.07 151.63,-178.07 177.63,-178.07 177.63,-196.07"/>
<text text-anchor="middle" x="164.63" y="-184.87" font-family="Times,serif" font-size="9.00">I3</text>
</g>
<!-- right -->
<g id="node10" class="node">
<title>right</title>
<ellipse fill="lightblue" stroke="black" cx="212.63" cy="-113.78" rx="28.07" ry="28.07"/>
<text text-anchor="middle" x="212.63" y="-111.58" font-family="Times,serif" font-size="9.00">right</text>
</g>
<!-- I3&#45;&gt;right -->
<g id="edge2" class="edge">
<title>I3&#45;&gt;right</title>
<path fill="none" stroke="green" stroke-width="0.34" d="M170.13,-177.89C175.4,-170.06 183.7,-157.75 191.56,-146.07"/>
<polygon fill="green" stroke="green" stroke-width="0.34" points="194.48,-148 197.16,-137.75 188.67,-144.09 194.48,-148"/>
</g>
<!-- I4 -->
<g id="node4" class="node">
<title>I4</title>
<polygon fill="lightgray" stroke="black" points="221.63,-196.07 195.63,-196.07 195.63,-178.07 221.63,-178.07 221.63,-196.07"/>
<text text-anchor="middle" x="208.63" y="-184.87" font-family="Times,serif" font-size="9.00">I4</text>
</g>
<!-- I4&#45;&gt;right -->
<g id="edge3" class="edge">
<title>I4&#45;&gt;right</title>
<path fill="none" stroke="red" stroke-width="0.58" d="M209.09,-177.89C209.45,-171.43 209.98,-161.92 210.53,-152.22"/>
<polygon fill="red" stroke="red" stroke-width="0.58" points="214.02,-152.36 211.09,-142.18 207.04,-151.97 214.02,-152.36"/>
</g>
<!-- I5 -->
<g id="node5" class="node">
<title>I5</title>
<polygon fill="lightgray" stroke="black" points="265.63,-196.07 239.63,-196.07 239.63,-178.07 265.63,-178.07 265.63,-196.07"/>
<text text-anchor="middle" x="252.63" y="-184.87" font-family="Times,serif" font-size="9.00">I5</text>
</g>
<!-- I5&#45;&gt;right -->
<g id="edge4" class="edge">
<title>I5&#45;&gt;right</title>
<path fill="none" stroke="red" stroke-width="0.17" stroke-dasharray="1,5" d="M248.04,-177.89C243.83,-170.39 237.31,-158.76 231,-147.53"/>
<polygon fill="red" stroke="red" stroke-width="0.17" points="233.99,-145.69 226.04,-138.69 227.88,-149.12 233.99,-145.69"/>
</g>
<!-- I6 -->
<g id="node6" class="node">
<title>I6</title>
<polygon fill="lightgray" stroke="black" points="89.63,-196.07 63.63,-196.07 63.63,-178.07 89.63,-178.07 89.63,-196.07"/>
<text text-anchor="middle" x="76.63" y="-184.87" font-family="Times,serif" font-size="9.00">I6</text>
</g>
<!-- I6&#45;&gt;left -->
<g id="edge5" class="edge">
<title>I6&#45;&gt;left</title>
<path fill="none" stroke="red" stroke-width="1.01" d="M70.43,-177.89C63.57,-168.83 52.16,-153.76 42.2,-140.62"/>
<polygon fill="red" stroke="red" stroke-width="1.01" points="44.76,-138.21 35.93,-132.35 39.18,-142.43 44.76,-138.21"/>
</g>
<!-- 483 -->
<g id="node11" class="node">
<title>483</title>
<ellipse fill="white" stroke="black" cx="87.63" cy="-113.78" rx="25" ry="25"/>
<text text-anchor="middle" x="87.63" y="-111.58" font-family="Times,serif" font-size="9.00">483</text>
</g>
<!-- I6&#45;&gt;483 -->
<g id="edge10" class="edge">
<title>I6&#45;&gt;483</title>
<path fill="none" stroke="green" stroke-width="0.19" d="M77.89,-177.89C79.02,-170.55 80.76,-159.28 82.46,-148.28"/>
<polygon fill="green" stroke="green" stroke-width="0.19" points="85.92,-148.79 83.99,-138.37 79,-147.72 85.92,-148.79"/>
</g>
<!-- I7 -->
<g id="node7" class="node">
<title>I7</title>
<polygon fill="lightgray" stroke="black" points="309.63,-196.07 283.63,-196.07 283.63,-178.07 309.63,-178.07 309.63,-196.07"/>
<text text-anchor="middle" x="296.63" y="-184.87" font-family="Times,serif" font-size="9.00">I7</text>
</g>
<!-- I7&#45;&gt;right -->
<g id="edge8" class="edge">
<title>I7&#45;&gt;right</title>
<path fill="none" stroke="green" stroke-width="0.1" stroke-dasharray="1,5" d="M286.99,-177.89C276.06,-168.61 257.69,-153.02 241.95,-139.67"/>
<polygon fill="green" stroke="green" stroke-width="0.1" points="243.9,-136.73 234.01,-132.93 239.37,-142.07 243.9,-136.73"/>
</g>
<!-- I8 -->
<g id="node8" class="node">
<title>I8</title>
<polygon fill="lightgray" stroke="black" points="353.63,-196.07 327.63,-196.07 327.63,-178.07 353.63,-178.07 353.63,-196.07"/>
<text text-anchor="middle" x="340.63" y="-184.87" font-family="Times,serif" font-size="9.00">I8</text>
</g>
<!-- 206 -->
<g id="node12" class="node">
<title>206</title>
<ellipse fill="white" stroke="black" cx="313.63" cy="-113.78" rx="25" ry="25"/>
<text text-anchor="middle" x="313.63" y="-111.58" font-family="Times,serif" font-size="9.00">206</text>
</g>
<!-- I8&#45;&gt;206 -->
<g id="edge6" class="edge">
<title>I8&#45;&gt;206</title>
<path fill="none" stroke="green" stroke-width="0.12" stroke-dasharray="1,5" d="M337.53,-177.89C334.61,-170.17 330.04,-158.11 325.67,-146.58"/>
<polygon fill="green" stroke="green" stroke-width="0.12" points="328.91,-145.24 322.09,-137.13 322.36,-147.72 328.91,-145.24"/>
</g>
<!-- 221 -->
<g id="node13" class="node">
<title>221</title>
<ellipse fill="white" stroke="black" cx="339.63" cy="-24.75" rx="25" ry="25"/>
<text text-anchor="middle" x="339.63" y="-22.55" font-family="Times,serif" font-size="9.00">221</text>
</g>
<!-- I8&#45;&gt;221 -->
<g id="edge7" class="edge">
<title>I8&#45;&gt;221</title>
<path fill="none" stroke="green" stroke-width="0.68" d="M342.3,-178C344.04,-169.21 346.63,-154.71 347.63,-142.07 349.61,-117 349.3,-110.58 347.63,-85.5 347.06,-76.96 346.04,-67.78 344.91,-59.24"/>
<polygon fill="green" stroke="green" stroke-width="0.68" points="348.36,-58.65 343.51,-49.23 341.43,-59.62 348.36,-58.65"/>
</g>
<!-- 206&#45;&gt;221 -->
<g id="edge9" class="edge">
<title>206&#45;&gt;221</title>
<path fill="none" stroke="red" stroke-width="0.24" d="M320.46,-89.91C323.33,-80.3 326.73,-68.93 329.86,-58.45"/>
<polygon fill="red" stroke="red" stroke-width="0.24" points="333.24,-59.35 332.75,-48.77 326.54,-57.34 333.24,-59.35"/>
</g>
</g>
</svg>
