<?xml version="1.0" encoding="UTF-8" standalone="no"?>
<!DOCTYPE svg PUBLIC "-//W3C//DTD SVG 1.1//EN"
 "http://www.w3.org/Graphics/SVG/1.1/DTD/svg11.dtd">
<!-- Generated by graphviz version 2.43.0 (0)
 -->
<!-- Title: %3 Pages: 1 -->
<svg width="293pt" height="285pt"
 viewBox="0.00 0.00 293.28 285.32" xmlns="http://www.w3.org/2000/svg" xmlns:xlink="http://www.w3.org/1999/xlink">
<g id="graph0" class="graph" transform="scale(1 1) rotate(0) translate(4 281.32)">
<title>%3</title>
<polygon fill="white" stroke="transparent" points="-4,4 -4,-281.32 289.28,-281.32 289.28,4 -4,4"/>
<!-- I1 -->
<g id="node1" class="node">
<title>I1</title>
<polygon fill="lightgray" stroke="black" points="138.28,-277.32 112.28,-277.32 112.28,-259.32 138.28,-259.32 138.28,-277.32"/>
<text text-anchor="middle" x="125.28" y="-266.12" font-family="Times,serif" font-size="9.00">I1</text>
</g>
<!-- right -->
<g id="node10" class="node">
<title>right</title>
<ellipse fill="lightblue" stroke="black" cx="28.28" cy="-195.04" rx="28.07" ry="28.07"/>
<text text-anchor="middle" x="28.28" y="-192.84" font-family="Times,serif" font-size="9.00">right</text>
</g>
<!-- I1&#45;&gt;right -->
<g id="edge1" class="edge">
<title>I1&#45;&gt;right</title>
<path fill="none" stroke="green" stroke-width="0.73" d="M114.22,-259.22C102.18,-250.4 82.35,-235.87 65.28,-223.32 63.2,-221.79 61.06,-220.21 58.89,-218.62"/>
<polygon fill="green" stroke="green" stroke-width="0.73" points="60.71,-215.61 50.58,-212.49 56.56,-221.24 60.71,-215.61"/>
</g>
<!-- 201 -->
<g id="node11" class="node">
<title>201</title>
<ellipse fill="white" stroke="black" cx="143.28" cy="-195.04" rx="25" ry="25"/>
<text text-anchor="middle" x="143.28" y="-192.84" font-family="Times,serif" font-size="9.00">201</text>
</g>
<!-- I1&#45;&gt;201 -->
<g id="edge13" class="edge">
<title>I1&#45;&gt;201</title>
<path fill="none" stroke="red" stroke-width="0.37" d="M127.35,-259.14C129.22,-251.75 132.09,-240.36 134.89,-229.28"/>
<polygon fill="red" stroke="red" stroke-width="0.37" points="138.35,-229.87 137.41,-219.32 131.56,-228.15 138.35,-229.87"/>
</g>
<!-- I2 -->
<g id="node2" class="node">
<title>I2</title>
<polygon fill="lightgray" stroke="black" points="33.28,-277.32 7.28,-277.32 7.28,-259.32 33.28,-259.32 33.28,-277.32"/>
<text text-anchor="middle" x="20.28" y="-266.12" font-family="Times,serif" font-size="9.00">I2</text>
</g>
<!-- I2&#45;&gt;right -->
<g id="edge2" class="edge">
<title>I2&#45;&gt;right</title>
<path fill="none" stroke="red" stroke-width="0.54" d="M21.2,-259.14C21.93,-252.68 22.99,-243.17 24.08,-233.48"/>
<polygon fill="red" stroke="red" stroke-width="0.54" points="27.57,-233.76 25.21,-223.43 20.62,-232.98 27.57,-233.76"/>
</g>
<!-- I3 -->
<g id="node3" class="node">
<title>I3</title>
<polygon fill="lightgray" stroke="black" points="100.28,-204.04 74.28,-204.04 74.28,-186.04 100.28,-186.04 100.28,-204.04"/>
<text text-anchor="middle" x="87.28" y="-192.84" font-family="Times,serif" font-size="9.00">I3</text>
</g>
<!-- left -->
<g id="node9" class="node">
<title>left</title>
<ellipse fill="lightblue" stroke="black" cx="142.28" cy="-22.63" rx="22.76" ry="22.76"/>
<text text-anchor="middle" x="142.28" y="-20.43" font-family="Times,serif" font-size="9.00">left</text>
</g>
<!-- I3&#45;&gt;left -->
<g id="edge3" class="edge">
<title>I3&#45;&gt;left</title>
<path fill="none" stroke="red" stroke-width="0.28" d="M81.7,-185.85C77.56,-180.12 71.57,-172.5 65.28,-166.75 43.99,-147.3 24.89,-156.18 11.28,-130.75 0.9,-111.36 -0.74,-99.68 11.28,-81.25 32.94,-48.07 78.45,-33.87 109.69,-27.88"/>
<polygon fill="red" stroke="red" stroke-width="0.28" points="110.43,-31.3 119.68,-26.14 109.23,-24.4 110.43,-31.3"/>
</g>
<!-- 206 -->
<g id="node12" class="node">
<title>206</title>
<ellipse fill="white" stroke="black" cx="89.28" cy="-106" rx="25" ry="25"/>
<text text-anchor="middle" x="89.28" y="-103.8" font-family="Times,serif" font-size="9.00">206</text>
</g>
<!-- I3&#45;&gt;206 -->
<g id="edge16" class="edge">
<title>I3&#45;&gt;206</title>
<path fill="none" stroke="red" stroke-width="0.37" d="M87.47,-186C87.7,-175.86 88.12,-157.74 88.49,-141.41"/>
<polygon fill="red" stroke="red" stroke-width="0.37" points="92,-141.12 88.73,-131.04 85,-140.96 92,-141.12"/>
</g>
<!-- I4 -->
<g id="node4" class="node">
<title>I4</title>
<polygon fill="lightgray" stroke="black" points="46.28,-115 20.28,-115 20.28,-97 46.28,-97 46.28,-115"/>
<text text-anchor="middle" x="33.28" y="-103.8" font-family="Times,serif" font-size="9.00">I4</text>
</g>
<!-- I4&#45;&gt;left -->
<g id="edge4" class="edge">
<title>I4&#45;&gt;left</title>
<path fill="none" stroke="green" stroke-width="0.32" stroke-dasharray="1,5" d="M40.17,-96.62C44.3,-91.85 49.8,-85.91 55.28,-81.25 73.74,-65.57 96.65,-50.55 114.32,-39.78"/>
<polygon fill="green" stroke="green" stroke-width="0.32" points="116.26,-42.7 123.04,-34.55 112.66,-36.7 116.26,-42.7"/>
</g>
<!-- I5 -->
<g id="node5" class="node">
<title>I5</title>
<polygon fill="lightgray" stroke="black" points="241.28,-277.32 215.28,-277.32 215.28,-259.32 241.28,-259.32 241.28,-277.32"/>
<text text-anchor="middle" x="228.28" y="-266.12" font-family="Times,serif" font-size="9.00">I5</text>
</g>
<!-- I5&#45;&gt;left -->
<g id="edge5" class="edge">
<title>I5&#45;&gt;left</title>
<path fill="none" stroke="green" stroke-width="0.7" d="M232.25,-259.16C244.93,-231.75 281.7,-141.37 246.28,-81.25 230.81,-54.99 198.59,-39.86 174.09,-31.75"/>
<polygon fill="green" stroke="green" stroke-width="0.7" points="175.05,-28.38 164.46,-28.78 172.99,-35.07 175.05,-28.38"/>
</g>
<!-- I5&#45;&gt;201 -->
<g id="edge10" class="edge">
<title>I5&#45;&gt;201</title>
<path fill="none" stroke="red" stroke-width="0.18" d="M218.53,-259.14C206.69,-249.21 186.24,-232.06 169.65,-218.15"/>
<polygon fill="red" stroke="red" stroke-width="0.18" points="171.78,-215.36 161.87,-211.62 167.28,-220.73 171.78,-215.36"/>
</g>
<!-- I6 -->
<g id="node6" class="node">
<title>I6</title>
<polygon fill="lightgray" stroke="black" points="77.28,-277.32 51.28,-277.32 51.28,-259.32 77.28,-259.32 77.28,-277.32"/>
<text text-anchor="middle" x="64.28" y="-266.12" font-family="Times,serif" font-size="9.00">I6</text>
</g>
<!-- I6&#45;&gt;right -->
<g id="edge6" class="edge">
<title>I6&#45;&gt;right</title>
<path fill="none" stroke="green" stroke-width="0.1" d="M60.15,-259.14C56.46,-251.83 50.79,-240.6 45.25,-229.63"/>
<polygon fill="green" stroke="green" stroke-width="0.1" points="48.31,-227.92 40.67,-220.57 42.06,-231.07 48.31,-227.92"/>
</g>
<!-- I7 -->
<g id="node7" class="node">
<title>I7</title>
<polygon fill="lightgray" stroke="black" points="285.28,-277.32 259.28,-277.32 259.28,-259.32 285.28,-259.32 285.28,-277.32"/>
<text text-anchor="middle" x="272.28" y="-266.12" font-family="Times,serif" font-size="9.00">I7</text>
</g>
<!-- I8 -->
<g id="node8" class="node">
<title>I8</title>
<polygon fill="lightgray" stroke="black" points="212.28,-204.04 186.28,-204.04 186.28,-186.04 212.28,-186.04 212.28,-204.04"/>
<text text-anchor="middle" x="199.28" y="-192.84" font-family="Times,serif" font-size="9.00">I8</text>
</g>
<!-- I8&#45;&gt;left -->
<g id="edge7" class="edge">
<title>I8&#45;&gt;left</title>
<path fill="none" stroke="green" stroke-width="0.18" stroke-dasharray="1,5" d="M205.31,-185.91C218.78,-166.69 248.65,-117.31 229.28,-81.25 217.42,-59.17 192.97,-44.13 173,-34.96"/>
<polygon fill="green" stroke="green" stroke-width="0.18" points="174.2,-31.67 163.63,-30.93 171.43,-38.1 174.2,-31.67"/>
</g>
<!-- I8&#45;&gt;206 -->
<g id="edge11" class="edge">
<title>I8&#45;&gt;206</title>
<path fill="none" stroke="green" stroke-width="0.47" d="M193.69,-185.86C189.54,-180.14 183.55,-172.52 177.28,-166.75 159.59,-150.45 137.11,-135.27 119.3,-124.28"/>
<polygon fill="green" stroke="green" stroke-width="0.47" points="120.83,-121.12 110.47,-118.94 117.21,-127.11 120.83,-121.12"/>
</g>
<!-- 150 -->
<g id="node13" class="node">
<title>150</title>
<ellipse fill="white" stroke="black" cx="195.28" cy="-106" rx="25" ry="25"/>
<text text-anchor="middle" x="195.28" y="-103.8" font-family="Times,serif" font-size="9.00">150</text>
</g>
<!-- I8&#45;&gt;150 -->
<g id="edge8" class="edge">
<title>I8&#45;&gt;150</title>
<path fill="none" stroke="green" stroke-width="0.54" d="M198.92,-186C198.45,-175.86 197.62,-157.74 196.87,-141.41"/>
<polygon fill="green" stroke="green" stroke-width="0.54" points="200.34,-140.87 196.39,-131.04 193.35,-141.2 200.34,-140.87"/>
</g>
<!-- 201&#45;&gt;left -->
<g id="edge15" class="edge">
<title>201&#45;&gt;left</title>
<path fill="none" stroke="green" stroke-width="0.11" d="M143.14,-169.98C142.97,-140.01 142.67,-88.71 142.47,-55.5"/>
<polygon fill="green" stroke="green" stroke-width="0.11" points="145.97,-55.38 142.41,-45.4 138.97,-55.42 145.97,-55.38"/>
</g>
<!-- 201&#45;&gt;150 -->
<g id="edge14" class="edge">
<title>201&#45;&gt;150</title>
<path fill="none" stroke="green" stroke-width="0.16" d="M155.61,-173.41C162.17,-162.44 170.35,-148.74 177.57,-136.65"/>
<polygon fill="green" stroke="green" stroke-width="0.16" points="180.74,-138.16 182.87,-127.78 174.74,-134.57 180.74,-138.16"/>
</g>
<!-- 206&#45;&gt;left -->
<g id="edge12" class="edge">
<title>206&#45;&gt;left</title>
<path fill="none" stroke="green" stroke-width="0.15" d="M102.39,-84.89C109.11,-74.56 117.4,-61.84 124.67,-50.67"/>
<polygon fill="green" stroke="green" stroke-width="0.15" points="127.72,-52.41 130.24,-42.12 121.85,-48.59 127.72,-52.41"/>
</g>
<!-- 150&#45;&gt;left -->
<g id="edge9" class="edge">
<title>150&#45;&gt;left</title>
<path fill="none" stroke="red" stroke-width="0.19" d="M182.18,-84.89C175.46,-74.56 167.17,-61.84 159.9,-50.67"/>
<polygon fill="red" stroke="red" stroke-width="0.19" points="162.72,-48.59 154.33,-42.12 156.85,-52.41 162.72,-48.59"/>
</g>
</g>
</svg>
